<svg id="Layer_1" data-name="Layer 1" xmlns="http://www.w3.org/2000/svg" viewBox="0 0 116 35.64"><defs><style>.cls-1{fill:#333;}.cls-2{fill:#ffd90c;}</style></defs><title>logo</title><path class="cls-1" d="M44.11,27.33H29V1.89h15.1V7.4H35.88v4H43.5v5.52H35.88v4.8h8.23Z" transform="translate(0 -0.25)"/><path class="cls-1" d="M55,27.33h-6.8V.25H55Z" transform="translate(0 -0.25)"/><path class="cls-1" d="M57.3,7.61h7.17l3.34,11.31a10,10,0,0,1,.33,2.14h.14A12,12,0,0,1,68.7,19L72.13,7.61h6.94l-7.79,21a12.44,12.44,0,0,1-3.68,5.66,9.22,9.22,0,0,1-5.7,1.65,13.52,13.52,0,0,1-2.79-.3V30.25a9.6,9.6,0,0,0,2.11.21,3.44,3.44,0,0,0,1.58-.35,3.56,3.56,0,0,0,1.18-1,8.41,8.41,0,0,0,1.08-2.08Z" transform="translate(0 -0.25)"/><path class="cls-1" d="M91.08,22.3a10.2,10.2,0,0,0,3.29-.68v5a13.19,13.19,0,0,1-2.62.84,14.65,14.65,0,0,1-2.92.26q-3.42,0-4.94-1.68t-1.51-5.16V12.71H80V9.94L83,7.8l1.76-4.14h4.46v4h4.83v5.1H89.24v7.67C89.24,21.66,89.85,22.3,91.08,22.3Z" transform="translate(0 -0.25)"/><path class="cls-1" d="M107.33,27.68c-3.28,0-5.83-.88-7.64-2.62S97,20.83,97,17.6s.84-5.88,2.53-7.67,4.08-2.67,7.2-2.67a9.55,9.55,0,0,1,6.88,2.33Q116,11.92,116,16.28v3H103.84a3.36,3.36,0,0,0,1.21,2.59,4.68,4.68,0,0,0,3.1.94,14.74,14.74,0,0,0,3.3-.34,16.32,16.32,0,0,0,3.26-1.16v4.89a12,12,0,0,1-3.3,1.13A22.81,22.81,0,0,1,107.33,27.68Zm-.4-15.79a2.81,2.81,0,0,0-2,.76A3.58,3.58,0,0,0,104,15h5.85a3.36,3.36,0,0,0-.81-2.28A2.69,2.69,0,0,0,106.93,11.89Z" transform="translate(0 -0.25)"/><circle class="cls-2" cx="12.72" cy="14.35" r="12.72"/><polygon class="cls-1" points="19.39 1.63 4.65 16.36 11.68 16.36 19.39 1.63"/><polygon class="cls-1" points="6.05 27.07 20.79 12.34 13.77 12.34 6.05 27.07"/></svg>